<svg xmlns="http://www.w3.org/2000/svg" viewBox="0 0 64 64">
  <circle cx="32" cy="32" r="28" fill="#0d1117"/>
  <path d="M24 44c0-1 0-3 0-3-4 1-5-2-5-2-.8-2-2-2-2-2-2 0 0 1 0 1 1 1 2 3 2 3 1 2 3 2 4 2 0 1 1 2 2 2-4 1-8-2-8-7 0-4 2-6 4-7 0-1-1-3 0-5 0 0 2 0 5 2 3-1 7-1 10 0 3-2 5-2 5-2 1 2 0 4 0 5 2 1 4 3 4 7 0 5-4 8-8 7 1 0 2-1 2-2 1 0 3 0 4-2 0 0 1-2 2-3 0 0 2-1 0-1 0 0-1 0-2 2 0 0-1 3-5 2 0 0 0 2 0 3" fill="#ffffff" stroke="#ffffff" stroke-linecap="round" stroke-linejoin="round" stroke-width="1.2"/>
</svg>
